# xmcd
#
# Track frame offsets:
#	150
#	13315
#	26332
#	36352
#	49442
#	62742
#	75475
#	88080
#	100462
#	112210
#	124292
#	136557
#	150025
#	162392
#	176990
#	190215
#	201977
#	214882
#	229045
#	240510
#
# Disc length: 3324 seconds
#
# Revision: 0
# Processed by: cddbd v1.4PL0 Copyright (c) Steve Scherf et al.
# Submitted via: dBpowerAMP V4.0
#
DISCID=180cfa14
DTITLE=Merle Haggard - The Merle Haggard Collection disc 1
DYEAR=1900
DGENRE=Country
TTITLE0=Okie from Muskogee
TTITLE1=The emptiest arms in the world
TTITLE2=Mama tried
TTITLE3=Swining doors
TTITLE4=Uncle Lem
TTITLE5=The fightin' side of me
TTITLE6=Sing me back home
TTITLE7=Silver wings
TTITLE8=Sing a sad song
TTITLE9=Honky tonk night time man
TTITLE10=Ketucky gambler
TTITLE11=I'm a lonesome fugitive
TTITLE12=Things aren't funny anymore
TTITLE13=Daddy Frank (the guitar man)
TTITLE14=I forget you every day
TTITLE15=Workin' man blues
TTITLE16=Love and honor
TTITLE17=Branded man
TTITLE18=Someday we'll look back
TTITLE19=I take a lot of pride in what I am
EXTD=
EXTT0=
EXTT1=
EXTT2=
EXTT3=
EXTT4=
EXTT5=
EXTT6=
EXTT7=
EXTT8=
EXTT9=
EXTT10=
EXTT11=
EXTT12=
EXTT13=
EXTT14=
EXTT15=
EXTT16=
EXTT17=
EXTT18=
EXTT19=
PLAYORDER=
